<?xml version="1.0" standalone="no"?>
<!DOCTYPE svg PUBLIC "-//W3C//DTD SVG 20010904//EN"
 "http://www.w3.org/TR/2001/REC-SVG-20010904/DTD/svg10.dtd">
<svg version="1.0" xmlns="http://www.w3.org/2000/svg"
 width="1024.000000pt" height="1024.000000pt" viewBox="0 0 1024.000000 1024.000000"
 preserveAspectRatio="xMidYMid meet">
<metadata>
Created by potrace 1.11, written by Peter Selinger 2001-2013
</metadata>
<g transform="translate(0.000000,1024.000000) scale(0.100000,-0.100000)"
fill="#000000" stroke="none">
<path d="M6861 10053 c-34 -104 -66 -197 -71 -208 -5 -11 -45 -130 -90 -265
-45 -135 -84 -252 -87 -260 -3 -8 -7 -19 -9 -25 -5 -16 -93 -279 -98 -290 -2
-5 -4 -14 -6 -20 -1 -5 -6 -16 -12 -22 -6 -7 -8 -13 -5 -13 3 0 -8 -37 -24
-82 -17 -46 -32 -90 -34 -98 -4 -17 -133 -398 -142 -420 -3 -8 -7 -19 -9 -25
-1 -5 -32 -98 -69 -205 -36 -107 -68 -202 -70 -210 -3 -8 -22 -67 -44 -130
-72 -209 -312 -915 -316 -930 -5 -19 -143 -428 -154 -455 -4 -11 -18 -51 -30
-90 -13 -38 -25 -77 -28 -85 -14 -39 -184 -536 -186 -545 -7 -25 -59 -182 -67
-200 -5 -11 -23 -63 -40 -115 -17 -52 -34 -102 -37 -110 -8 -20 -8 -20 -18
-55 -4 -16 -10 -34 -13 -39 -6 -10 -122 -354 -126 -371 -1 -5 -4 -14 -7 -20
-4 -5 -9 -22 -13 -37 -8 -34 -22 -36 -29 -5 -6 27 -93 274 -106 302 -11 23
-35 97 -33 105 0 3 -3 10 -8 15 -6 8 -29 68 -35 95 -1 3 -4 12 -8 20 -3 8 -13
35 -21 60 -38 112 -107 302 -116 320 -6 11 -8 20 -4 20 3 0 2 6 -4 13 -6 6
-11 17 -12 22 -4 18 -8 29 -33 100 -14 39 -62 174 -107 300 -44 127 -83 237
-87 245 -3 8 -7 20 -9 25 -3 10 -72 204 -100 280 -8 22 -16 45 -17 50 -4 13
-36 103 -47 130 -5 11 -12 31 -15 45 -4 14 -13 39 -20 55 -7 17 -25 64 -38
105 -14 41 -42 120 -62 175 -20 55 -59 165 -86 245 -28 80 -54 154 -59 165
-12 29 -23 58 -26 70 -1 6 -16 48 -34 95 -18 47 -33 90 -34 95 -2 6 -6 17 -9
25 -3 8 -18 49 -32 90 -15 41 -47 131 -71 200 -25 69 -51 143 -58 165 -8 22
-28 77 -45 123 -17 45 -28 82 -26 82 3 0 -1 10 -9 23 -8 12 -16 27 -17 32 -1
6 -5 20 -10 33 -5 12 -11 33 -13 46 -2 14 -10 34 -16 46 -11 20 -46 118 -55
150 -2 8 -4 16 -5 18 -2 1 -3 5 -5 10 -1 4 -5 15 -8 25 -15 39 -20 52 -23 62
-1 6 -16 48 -34 95 -17 47 -38 106 -47 131 -15 45 -17 47 -54 45 -22 0 -39 2
-39 6 0 4 -13 3 -30 -2 -16 -5 -30 -6 -30 -2 0 8 -105 7 -117 -1 -5 -3 -15 -2
-23 3 -7 4 -23 4 -36 0 -12 -5 -25 -6 -28 -3 -8 8 -76 9 -76 1 0 -4 -13 -3
-29 2 -16 4 -32 5 -36 2 -7 -8 -102 -5 -115 3 -6 3 -10 2 -10 -4 0 -6 -11 -6
-30 -1 -17 5 -30 5 -30 0 0 -5 -13 -5 -30 0 -17 5 -30 5 -30 0 0 -5 -13 -5
-30 0 -17 5 -30 5 -30 0 0 -5 -13 -5 -30 0 -17 5 -30 5 -30 0 0 -5 -13 -5 -30
0 -17 5 -30 5 -30 0 0 -5 -13 -5 -30 0 -17 5 -30 5 -30 0 0 -5 -13 -5 -30 0
-17 5 -30 5 -30 0 0 -5 -12 -5 -27 -1 -27 7 -63 4 -63 -5 0 -2 4 -12 10 -22 7
-14 82 -216 86 -232 1 -5 19 -51 31 -80 3 -8 7 -18 8 -22 2 -5 4 -10 5 -13 1
-3 3 -8 5 -12 2 -9 5 -17 42 -113 14 -36 27 -72 29 -80 4 -16 80 -223 94 -255
5 -11 23 -58 40 -105 73 -198 75 -204 80 -225 1 -5 6 -15 11 -21 5 -7 12 -20
14 -30 2 -11 29 -85 59 -166 31 -80 56 -149 56 -153 0 -4 6 -21 14 -38 16 -36
77 -196 81 -212 1 -5 7 -23 14 -40 7 -16 28 -73 47 -125 53 -144 75 -203 84
-225 4 -11 17 -45 28 -75 11 -30 24 -64 28 -75 4 -11 8 -22 9 -25 1 -3 7 -18
14 -35 6 -16 16 -43 22 -60 6 -16 15 -39 19 -50 5 -11 27 -72 50 -135 23 -63
45 -124 50 -135 5 -11 31 -81 58 -155 28 -74 81 -216 118 -315 37 -99 82 -223
101 -275 18 -52 38 -104 43 -115 5 -11 32 -83 60 -160 29 -77 65 -176 82 -220
17 -44 43 -114 58 -155 15 -41 41 -111 58 -155 17 -44 53 -143 81 -220 29 -77
56 -149 61 -160 5 -11 25 -63 43 -115 32 -90 111 -303 214 -575 25 -66 46
-124 48 -130 1 -5 7 -21 13 -35 6 -14 29 -77 52 -140 23 -63 45 -124 50 -135
5 -11 18 -46 29 -78 21 -58 21 -64 21 -1717 l0 -1660 513 0 512 0 0 1637 -1
1638 49 140 c27 77 53 156 59 175 5 19 15 41 22 49 6 8 10 16 8 18 -4 5 23 90
42 136 9 20 14 37 11 37 -2 0 5 21 16 48 12 26 22 54 24 62 2 8 11 35 20 60 9
25 18 52 20 60 2 8 17 52 34 98 16 45 46 130 66 190 19 59 39 114 44 122 5 9
12 31 16 50 4 19 11 41 15 50 5 8 18 42 29 75 35 103 172 499 178 515 4 8 7
17 8 20 6 24 18 59 25 75 5 11 20 54 34 95 14 41 52 154 86 250 34 96 70 200
80 230 17 51 155 450 165 478 2 7 5 16 6 20 1 4 6 18 11 32 13 32 139 392 142
405 1 6 10 33 20 60 27 76 29 79 32 90 2 6 16 48 33 95 129 369 177 509 208
600 19 58 38 114 43 125 19 42 59 165 53 165 -3 0 0 6 6 14 6 7 17 33 25 57 8
24 48 143 91 264 42 121 93 270 113 330 20 61 42 113 47 117 6 4 7 8 3 8 -4 0
9 44 28 98 20 53 37 102 38 107 2 6 6 17 9 25 3 8 18 51 33 95 37 110 91 268
164 475 34 96 70 200 80 230 10 30 54 160 99 288 l80 232 -513 0 -513 0 -62
-187z"/>
</g>
</svg>
